<svg width="13" height="8" viewBox="0 0 13 8" fill="none" xmlns="http://www.w3.org/2000/svg">
<path d="M12.8511 3.55759C12.8509 3.5574 12.8508 3.55719 12.8506 3.557L10.1972 0.306998C9.9984 0.0635292 9.67688 0.0644353 9.47901 0.309123C9.28116 0.553779 9.28192 0.949498 9.48071 1.193L11.2622 3.375H0.507812C0.227348 3.375 0 3.65481 0 4C0 4.34519 0.227348 4.625 0.507812 4.625H11.2622L9.48073 6.807C9.28195 7.0505 9.28119 7.44622 9.47903 7.69087C9.6769 7.93559 9.99845 7.93644 10.1972 7.693L12.8506 4.443C12.8508 4.44281 12.8509 4.44259 12.8511 4.4424C13.05 4.19809 13.0493 3.80109 12.8511 3.55759Z" fill="black"/>
</svg>
