<svg width="54" height="54" viewBox="0 0 54 54" fill="none" xmlns="http://www.w3.org/2000/svg">
<path d="M36.6204 31.7683L29.0913 26.1215V14.6189C29.0913 13.4623 28.1565 12.5275 26.9999 12.5275C25.8433 12.5275 24.9084 13.4623 24.9084 14.6189V27.1674C24.9084 27.8261 25.218 28.4473 25.745 28.8405L34.1106 35.1148C34.487 35.3971 34.9263 35.533 35.3634 35.533C36.0012 35.533 36.6287 35.2465 37.0386 34.6944C37.7331 33.7719 37.5449 32.4606 36.6204 31.7683Z" fill="black"/>
<path d="M27 0C12.1113 0 0 12.1113 0 27C0 41.8887 12.1113 54 27 54C41.8887 54 54 41.8887 54 27C54 12.1113 41.8887 0 27 0ZM27 49.8172C14.4202 49.8172 4.18279 39.5798 4.18279 27C4.18279 14.4202 14.4202 4.18279 27 4.18279C39.5819 4.18279 49.8172 14.4202 49.8172 27C49.8172 39.5798 39.5798 49.8172 27 49.8172Z" fill="black"/>
</svg>
