<svg width="63" height="60" viewBox="0 0 63 60" fill="none" xmlns="http://www.w3.org/2000/svg">
<g clip-path="url(#clip0)">
<path d="M29.0704 40.6952C29.5515 40.237 29.5515 39.4954 29.0704 39.0372C28.5888 38.5803 27.8086 38.5803 27.3265 39.0372C26.8459 39.4954 26.8459 40.237 27.3265 40.6952C27.8086 41.1521 28.5888 41.1521 29.0704 40.6952Z" fill="black"/>
<path d="M23.2335 12.887C23.2335 19.9928 29.3155 25.7744 36.7913 25.7744C44.267 25.7744 50.3491 19.9928 50.3491 12.887C50.3491 5.7811 44.267 0 36.7913 0C29.3155 0 23.2335 5.7811 23.2335 12.887ZM47.8843 12.887C47.8843 18.701 42.908 23.4311 36.7913 23.4311C30.6745 23.4311 25.6983 18.701 25.6983 12.887C25.6983 7.07337 30.6745 2.34329 36.7913 2.34329C42.908 2.34329 47.8843 7.07337 47.8843 12.887Z" fill="black"/>
<path d="M14.2585 59.6535C14.7363 60.1113 15.514 60.1163 15.998 59.6631L21.9736 54.0674C22.9888 53.1024 23.2975 51.6737 22.8511 50.4318L24.1365 49.2536C24.8285 48.6182 25.7397 48.268 26.7029 48.268H43.0881C45.995 48.268 48.7425 47.2069 50.8253 45.2802C50.9111 45.201 50.1747 46.0254 62.0036 32.5873C63.758 30.6143 63.4956 27.6517 61.418 25.9822C59.3534 24.3283 56.2606 24.5659 54.5013 26.505L47.2283 33.6104C46.3099 32.536 44.9095 31.8663 43.3963 31.8663H29.6521C27.6964 31.0886 25.6212 30.6949 23.48 30.6949C17.5449 30.6949 12.3625 33.3005 9.58129 38.1857C8.40957 37.9747 7.17381 38.3116 6.28479 39.1567L0.421398 44.7464C-0.0573054 45.2028 -0.0582685 45.9412 0.419471 46.3989L14.2585 59.6535ZM23.4796 33.0377C25.3674 33.0377 27.1926 33.3989 28.9057 34.1112C29.0617 34.1762 29.2298 34.2096 29.3998 34.2096H43.3963C44.7327 34.2096 45.8616 35.2455 45.8616 36.5524C45.8616 37.8447 44.7558 38.8957 43.3963 38.8957H33.3402C32.6597 38.8957 32.1078 39.4203 32.1078 40.0671C32.1078 40.7144 32.6597 41.2386 33.3402 41.2386H43.3963C46.1149 41.2386 48.3264 39.1365 48.3264 36.5524C48.3264 36.3464 48.311 36.1423 48.283 35.9399C55.3186 29.0657 56.3107 28.0998 56.3531 28.0518C57.2315 27.0662 58.7909 26.9412 59.8282 27.7725C60.8665 28.607 60.998 30.0884 60.1172 31.0794L49.0622 43.6414C47.4479 45.1145 45.3284 45.9251 43.0881 45.9251H26.7029C25.0972 45.9251 23.5773 46.5088 22.4244 47.5676L21.3769 48.5285L11.721 39.3507C13.9777 35.3265 18.2124 33.0377 23.4796 33.0377ZM8.02911 40.8124C8.43558 40.426 9.05972 40.3565 9.55528 40.6476C9.76863 40.7712 9.15604 40.2411 20.2307 50.7532C20.7234 51.2215 20.6969 51.9676 20.2375 52.4043L15.1432 57.1747L3.03259 45.5754L8.02911 40.8124Z" fill="black"/>
<path d="M35.3123 5.858V7.23084C33.8776 7.71423 32.847 9.01657 32.847 10.5441C32.847 12.4818 34.5056 14.0588 36.5447 14.0588C37.2242 14.0588 37.7771 14.5844 37.7771 15.2303C37.7771 15.8762 37.2242 16.4017 36.5447 16.4017C36.0183 16.4017 35.4496 16.0872 34.9444 15.5154C34.5061 15.0201 33.7288 14.9565 33.2077 15.3726C32.6867 15.7892 32.6192 16.528 33.0575 17.0233C33.7163 17.7681 34.4912 18.2872 35.3123 18.549V19.9164C35.3123 20.5637 35.8642 21.0878 36.5447 21.0878C37.2252 21.0878 37.7771 20.5637 37.7771 19.9164V18.5436C39.2118 18.0597 40.2424 16.7574 40.2424 15.2303C40.2424 13.2921 38.5838 11.7155 36.5447 11.7155C35.8652 11.7155 35.3123 11.19 35.3123 10.5441C35.3123 9.89823 35.8652 9.37226 36.5447 9.37226C36.9815 9.37226 37.4424 9.5842 37.8777 9.98474C38.367 10.4347 39.1472 10.4224 39.6206 9.95774C40.094 9.49265 40.081 8.75107 39.5922 8.30109C38.9666 7.72568 38.3406 7.40021 37.7771 7.2226V5.858C37.7771 5.21072 37.2252 4.68613 36.5447 4.68613C35.8642 4.68613 35.3123 5.21072 35.3123 5.858Z" fill="black"/>
</g>
<defs>
<clipPath id="clip0">
<rect width="63" height="60" fill="white"/>
</clipPath>
</defs>
</svg>
