<svg width="54" height="54" viewBox="0 0 54 54" fill="none" xmlns="http://www.w3.org/2000/svg">
<g clip-path="url(#clip0)">
<path d="M49.6671 35.4448C46.361 35.4448 43.1148 34.9277 40.0386 33.9112C38.5312 33.397 36.6782 33.8687 35.7583 34.8135L29.6865 39.3971C22.645 35.6383 18.3075 31.3023 14.6001 24.3136L19.0488 18.4001C20.2046 17.2458 20.6191 15.5597 20.1225 13.9777C19.1015 10.8854 18.5829 7.64072 18.5829 4.33322C18.583 1.94386 16.6392 0 14.25 0H4.33308C1.94386 0 0 1.94386 0 4.33308C0 31.7198 22.2803 54 49.6671 54C52.0563 54 54.0001 52.0561 54.0001 49.6669V39.7778C54 37.3887 52.0561 35.4448 49.6671 35.4448Z" fill="black"/>
</g>
<defs>
<clipPath id="clip0">
<rect width="54" height="54" fill="white"/>
</clipPath>
</defs>
</svg>
