<svg width="63" height="54" viewBox="0 0 63 54" fill="none" xmlns="http://www.w3.org/2000/svg">
<g clip-path="url(#clip0)">
<path d="M31.5 0C19.2874 0 9.35156 8.51639 9.35156 18.9844C9.35156 22.5212 10.4945 25.9727 12.6577 28.9672L30.2393 53.2521C30.576 53.7173 31.1694 54 31.8075 54C31.8124 54 31.8172 54 31.8221 54C32.4658 53.9957 33.0604 53.7043 33.391 53.2309L50.5244 28.7107C52.5682 25.7795 53.6484 22.4162 53.6484 18.9844C53.6484 8.51639 43.7126 0 31.5 0ZM47.3566 27.0863L31.7796 49.379L15.7952 27.3002C13.9946 24.8077 13.0184 21.9322 13.0184 18.9844C13.0184 10.2611 21.3228 3.14297 31.5 3.14297C41.6772 3.14297 49.9693 10.2611 49.9693 18.9844C49.9693 21.8448 49.0574 24.6468 47.3566 27.0863Z" fill="black"/>
<path d="M31.5 9.49219C25.3937 9.49219 20.4258 13.7504 20.4258 18.9844C20.4258 24.1849 25.3128 28.4766 31.5 28.4766C37.7635 28.4766 42.5742 24.1278 42.5742 18.9844C42.5742 13.7504 37.6063 9.49219 31.5 9.49219ZM31.5 25.3336C27.4078 25.3336 24.0926 22.4825 24.0926 18.9844C24.0926 15.495 27.4291 12.6352 31.5 12.6352C35.5709 12.6352 38.8951 15.495 38.8951 18.9844C38.8951 22.4314 35.657 25.3336 31.5 25.3336Z" fill="black"/>
</g>
<defs>
<clipPath id="clip0">
<rect width="63" height="54" fill="white"/>
</clipPath>
</defs>
</svg>
