<svg width="21" height="22" viewBox="0 0 21 22" fill="none" xmlns="http://www.w3.org/2000/svg">
<g clip-path="url(#clip0)">
<path d="M5.06872 11.6037L14.7818 21.7512C15.1001 22.0835 15.6153 22.0829 15.933 21.7495C16.2505 21.4161 16.2497 20.876 15.9314 20.5435L6.79641 11L15.9317 1.45647C16.2499 1.12389 16.2508 0.584164 15.9333 0.250727C15.7741 0.08358 15.5654 3.8147e-06 15.3568 3.8147e-06C15.1487 3.8147e-06 14.9409 0.0830212 14.7819 0.249008L5.06872 10.3963C4.91544 10.556 4.82943 10.7734 4.82943 11C4.82943 11.2265 4.91569 11.4437 5.06872 11.6037Z" fill="#490613"/>
</g>
<defs>
<clipPath id="clip0">
<rect width="21" height="22" fill="white" transform="translate(21 22) rotate(-180)"/>
</clipPath>
</defs>
</svg>
