<svg width="23" height="17" viewBox="0 0 23 17" fill="none" xmlns="http://www.w3.org/2000/svg">
<path d="M20.9785 2.02539H2.02148C0.90823 2.02539 0 2.69596 0 3.51953V13.4805C0 14.3012 0.904188 14.9746 2.02148 14.9746H20.9785C22.089 14.9746 23 14.3063 23 13.4805V3.51953C23 2.69875 22.0958 2.02539 20.9785 2.02539ZM20.6994 3.02148L11.5429 9.78938L2.30714 3.02148H20.6994ZM1.34766 13.2742V3.72104L7.83792 8.47706L1.34766 13.2742ZM2.30058 13.9785L8.79494 9.17834L11.0705 10.8459C11.334 11.0389 11.7591 11.0383 12.0214 10.8443L14.2402 9.20434L20.6994 13.9785H2.30058ZM21.6523 13.2742L15.1932 8.5L21.6523 3.72579V13.2742Z" fill="white"/>
</svg>
