<svg width="23" height="17" viewBox="0 0 23 17" fill="none" xmlns="http://www.w3.org/2000/svg">
<g clip-path="url(#clip0)">
<path d="M6.6486 12.5946C5.64375 12.5566 5.66267 11.512 6.64855 11.4757C9.44126 11.4829 16.8072 11.4776 19.6888 11.4791C20.4769 11.4791 21.1512 11.0827 21.3284 10.5151L22.9646 5.27819C23.0583 4.97834 22.9638 4.66799 22.7052 4.42678C22.4467 4.18556 22.0597 4.04527 21.6434 4.04527C20.4842 4.04527 10.6444 4.01235 5.60451 3.9975L4.8056 1.80649C4.61382 1.2829 3.96736 0.917236 3.23349 0.917236H0.674186C0.301856 0.917236 0 1.14035 0 1.41555C0 1.69075 0.301856 1.91386 0.674186 1.91386H3.23349C3.35983 1.91386 3.47107 1.97681 3.50393 2.06641L6.57215 10.4804C6.03266 10.4949 5.53017 10.6571 5.14912 10.9429C4.74874 11.2432 4.53372 11.6407 4.54366 12.0622C4.56352 12.9053 5.50779 13.5912 6.6486 13.5912H7.63165C7.48553 13.8179 7.40351 14.0713 7.40351 14.3387C7.40351 15.3004 8.46207 16.0828 9.76325 16.0828C11.0644 16.0828 12.123 15.3004 12.123 14.3387C12.123 14.0713 12.0409 13.8179 11.8948 13.5912H16.1519C16.0059 13.8178 15.9239 14.0711 15.9239 14.3384C15.9239 15.3001 16.9825 16.0826 18.2836 16.0826C19.5848 16.0826 20.6434 15.3001 20.6434 14.3384C20.6434 14.0607 20.5547 13.7981 20.3978 13.5648C20.6646 13.4984 20.857 13.3124 20.857 13.0929C20.857 12.8177 20.5551 12.5946 20.1828 12.5946H6.6486ZM10.7746 14.3387C10.7746 14.7509 10.3209 15.0862 9.7632 15.0862C9.20552 15.0862 8.75184 14.7509 8.75184 14.3387C8.75184 13.9267 9.20507 13.5915 9.76235 13.5912H9.76406C10.3213 13.5915 10.7746 13.9267 10.7746 14.3387ZM18.2837 15.086C17.726 15.086 17.2723 14.7506 17.2723 14.3384C17.2723 13.9303 17.7172 13.5977 18.2673 13.5912H18.3001C18.8502 13.5977 19.2951 13.9303 19.2951 14.3384C19.2951 14.7506 18.8413 15.086 18.2837 15.086ZM21.6483 5.04555C21.6523 5.04927 21.6517 5.05103 21.6509 5.05389L20.9614 7.26058H18.6269L19.0244 5.03402L21.638 5.04179C21.642 5.04186 21.6443 5.04186 21.6483 5.04555ZM14.6977 10.4825V8.2572H17.0889L16.6915 10.4825H14.6977ZM11.3545 10.4825L10.954 8.2572H13.3493V10.4825H11.3545ZM8.25087 10.4825H8.24876C8.08444 10.4824 7.93967 10.4005 7.89692 10.2838L7.15793 8.2572H9.59367L9.99423 10.4825H8.25087ZM10.7745 7.26061L10.3691 5.00827L13.3492 5.01714V7.26061H10.7745ZM14.6977 7.26061V5.02116L17.6651 5.03L17.2668 7.26061H14.6977ZM9.00807 5.00419L9.41425 7.26058H6.79449L5.96839 4.99512L9.00807 5.00419ZM19.6888 10.4825H18.0516L18.4489 8.2572H20.65L20.0146 10.2909C19.9794 10.4037 19.8454 10.4825 19.6888 10.4825Z" fill="white"/>
</g>
<defs>
<clipPath id="clip0">
<rect width="23" height="17" fill="white"/>
</clipPath>
</defs>
</svg>
