<svg width="42" height="38" viewBox="0 0 42 38" fill="none" xmlns="http://www.w3.org/2000/svg">
<path d="M40.25 20.5505H1.75C0.783997 20.5505 0 19.8411 0 18.9671C0 18.0931 0.783997 17.3838 1.75 17.3838H40.25C41.216 17.3838 42 18.0931 42 18.9671C42 19.8411 41.216 20.5505 40.25 20.5505Z" fill="white"/>
<path d="M40.25 8.41154H1.75C0.783997 8.41154 0 7.70221 0 6.82821C0 5.9542 0.783997 5.24487 1.75 5.24487H40.25C41.216 5.24487 42 5.9542 42 6.82821C42 7.70221 41.216 8.41154 40.25 8.41154Z" fill="white"/>
<path d="M40.25 32.6891H1.75C0.783997 32.6891 0 31.9798 0 31.1058C0 30.2318 0.783997 29.5225 1.75 29.5225H40.25C41.216 29.5225 42 30.2318 42 31.1058C42 31.9798 41.216 32.6891 40.25 32.6891Z" fill="white"/>
</svg>
